<svg width="29" height="29" viewBox="0 0 29 29" fill="none" xmlns="http://www.w3.org/2000/svg">
<path d="M26.3302 12.1251H25.3575V12.075H14.49V16.905H21.3142C20.3186 19.7166 17.6434 21.735 14.49 21.735C10.489 21.735 7.24504 18.491 7.24504 14.49C7.24504 10.4889 10.489 7.24498 14.49 7.24498C16.3369 7.24498 18.0172 7.94171 19.2965 9.07977L22.7119 5.66436C20.5553 3.65448 17.6706 2.41498 14.49 2.41498C7.82162 2.41498 2.41504 7.82156 2.41504 14.49C2.41504 21.1584 7.82162 26.565 14.49 26.565C21.1585 26.565 26.565 21.1584 26.565 14.49C26.565 13.6804 26.4817 12.89 26.3302 12.1251Z" fill="#FFC107"/>
<path d="M3.80725 8.86967L7.77449 11.7791C8.84796 9.12143 11.4477 7.24498 14.49 7.24498C16.3369 7.24498 18.0171 7.94171 19.2965 9.07977L22.7119 5.66436C20.5553 3.65448 17.6706 2.41498 14.49 2.41498C9.852 2.41498 5.82981 5.03344 3.80725 8.86967Z" fill="#FF3D00"/>
<path d="M14.49 26.565C17.609 26.565 20.443 25.3714 22.5857 23.4304L18.8485 20.2679C17.6361 21.1862 16.1292 21.735 14.49 21.735C11.3493 21.735 8.68253 19.7324 7.67789 16.9376L3.74023 19.9715C5.73865 23.882 9.79706 26.565 14.49 26.565Z" fill="#4CAF50"/>
<path d="M26.3301 12.1251H25.3575V12.075H14.49V16.905H21.3142C20.836 18.2556 19.9672 19.4202 18.8467 20.2685C18.8473 20.2679 18.8479 20.2679 18.8485 20.2673L22.5857 23.4297C22.3212 23.67 26.565 20.5275 26.565 14.49C26.565 13.6804 26.4817 12.8901 26.3301 12.1251Z" fill="#1976D2"/>
</svg>
